<svg xmlns="http://www.w3.org/2000/svg" width="20" height="21.566" viewBox="0 0 20 21.566">
  <g id="calendar" transform="translate(-1097 -1834.434)">
    <g id="Прямоугольник_17" data-name="Прямоугольник 17" transform="translate(1097 1836)" fill="none" stroke="#e51026" stroke-width="1">
      <rect width="20" height="20" rx="2" stroke="none"/>
      <rect x="0.5" y="0.5" width="19" height="19" rx="1.5" fill="none"/>
    </g>
    <line id="Линия_43" data-name="Линия 43" y2="3.066" transform="translate(1102.039 1834.934)" fill="none" stroke="#e51026" stroke-linecap="round" stroke-width="1"/>
    <line id="Линия_44" data-name="Линия 44" y2="3.066" transform="translate(1107 1834.934)" fill="none" stroke="#e51026" stroke-linecap="round" stroke-width="1"/>
    <line id="Линия_45" data-name="Линия 45" y2="3.066" transform="translate(1111.961 1834.934)" fill="none" stroke="#e51026" stroke-linecap="round" stroke-width="1"/>
    <rect id="Прямоугольник_18" data-name="Прямоугольник 18" width="1" height="1" rx="0.5" transform="translate(1101.5 1841.967)" fill="#e51026"/>
    <rect id="Прямоугольник_19" data-name="Прямоугольник 19" width="1" height="1" rx="0.5" transform="translate(1106.5 1841.967)" fill="#e51026"/>
    <rect id="Прямоугольник_20" data-name="Прямоугольник 20" width="1" height="1" rx="0.5" transform="translate(1111.5 1841.967)" fill="#e51026"/>
    <rect id="Прямоугольник_21" data-name="Прямоугольник 21" width="1" height="1" rx="0.5" transform="translate(1101.5 1845.967)" fill="#e51026"/>
    <rect id="Прямоугольник_22" data-name="Прямоугольник 22" width="1" height="1" rx="0.5" transform="translate(1106.5 1845.967)" fill="#e51026"/>
    <rect id="Прямоугольник_23" data-name="Прямоугольник 23" width="1" height="1" rx="0.5" transform="translate(1111.5 1845.967)" fill="#e51026"/>
    <rect id="Прямоугольник_24" data-name="Прямоугольник 24" width="1" height="1" rx="0.5" transform="translate(1101.5 1849.967)" fill="#e51026"/>
    <rect id="Прямоугольник_25" data-name="Прямоугольник 25" width="1" height="1" rx="0.5" transform="translate(1106.5 1849.967)" fill="#e51026"/>
    <rect id="Прямоугольник_26" data-name="Прямоугольник 26" width="1" height="1" rx="0.5" transform="translate(1111.5 1849.967)" fill="#e51026"/>
  </g>
</svg>
