<svg xmlns="http://www.w3.org/2000/svg" width="23.228" height="21.54" viewBox="0 0 23.228 21.54">
  <g id="evening" transform="translate(-1275.713 -1828.804)">
    <g id="Контур_20" data-name="Контур 20" transform="translate(1277 1833.19)" fill="none">
      <path d="M13.589,13.759a7.906,7.906,0,0,1-6.369,3.4c-4.694,0-8.769-3.289-8.494-8.773,0-2.835,2.041-6.873,7.385-7.813C1.847,9.008,6.346,13.544,13.589,13.759Z" stroke="none"/>
      <path d="M 7.220217704772949 16.15466499328613 C 8.363348007202148 16.15466499328613 9.450588226318359 15.86224460601807 10.45172786712646 15.2855339050293 C 10.80495548248291 15.08205604553223 11.14569282531738 14.84307384490967 11.46829414367676 14.57370948791504 C 8.231935501098633 14.07991600036621 5.792491436004639 12.65692901611328 4.488877773284912 10.46517467498779 C 3.5280601978302 8.849758148193359 2.819019794464111 6.151298999786377 4.343269824981689 2.098589897155762 C 3.063440561294556 2.610301494598389 1.994968056678772 3.384071588516235 1.197557806968689 4.38664436340332 C 0.2627178132534027 5.561994552612305 -0.273432195186615 7.018094539642334 -0.273432195186615 8.381594657897949 L -0.2746821939945221 8.43166446685791 C -0.3836521804332733 10.60527420043945 0.2605578005313873 12.4920539855957 1.58831787109375 13.8880443572998 C 2.958377838134766 15.32851409912109 5.011127948760986 16.15466499328613 7.220217704772949 16.15466499328613 M 7.220217704772949 17.15466499328613 C 2.525797843933105 17.15466499328613 -1.548342227935791 13.865234375 -1.27343213558197 8.381594657897949 C -1.27343213558197 5.546164512634277 0.7670878171920776 1.508174300193787 6.111817836761475 0.5687243342399597 C 1.846677780151367 9.008054733276367 6.346187591552734 13.54419422149658 13.58935737609863 13.75940418243408 C 12.23365783691406 15.61277389526367 10.03216743469238 17.15466499328613 7.220217704772949 17.15466499328613 Z" stroke="none" fill="#e51026"/>
    </g>
    <g id="Многоугольник_12" data-name="Многоугольник 12" transform="translate(1288 1831)" fill="none">
      <path d="M2.5,0l.813,1.588L5,1.91l-1.185,1.3L4.045,5,2.5,4.217.955,5l.23-1.787L0,1.91l1.687-.322Z" stroke="none"/>
      <path d="M 2.5 0 L 1.6875 1.588069915771484 L 0 1.909830093383789 L 1.185349941253662 3.213069915771484 L 0.9549098014831543 5 L 2.5 4.217380046844482 L 4.045080184936523 5 L 3.814650058746338 3.213069915771484 L 5 1.909830093383789 L 3.3125 1.588069915771484 L 2.5 0 M 2.5 -2.195509910583496 L 3.980066061019897 0.6973433494567871 L 6.941060066223145 1.261919975280762 L 4.865582942962646 3.543819904327393 L 5.278470039367676 6.745709896087646 L 2.499998569488525 5.3383469581604 L -0.2785000801086426 6.745709896087646 L 0.1344137191772461 3.543816328048706 L -1.941060066223145 1.261919975280762 L 1.019933938980103 0.6973433494567871 L 2.5 -2.195509910583496 Z" stroke="none" fill="#e51026"/>
    </g>
    <g id="Многоугольник_13" data-name="Многоугольник 13" transform="translate(1294 1841)" fill="none">
      <path d="M1.5,0l.488.953L3,1.146l-.711.782L2.427,3,1.5,2.53.573,3,.711,1.928,0,1.146,1.012.953Z" stroke="none"/>
      <path d="M 1.5 0 L 1.012500047683716 0.9528400897979736 L 0 1.145900011062622 L 0.7112100124359131 1.927839994430542 L 0.5729498863220215 3 L 1.5 2.53043007850647 L 2.427050113677979 3 L 2.288789987564087 1.927839994430542 L 3 1.145900011062622 L 1.987499952316284 0.9528400897979736 L 1.5 0 M 1.5 -2.195499897003174 L 2.65506649017334 0.06211566925048828 L 4.941060066223145 0.497999906539917 L 3.339725017547607 2.258589506149292 L 3.660449981689453 4.745709896087646 L 1.5 3.651396512985229 L -0.6604499816894531 4.745709896087646 L -0.3397250175476074 2.258589506149292 L -1.941060066223145 0.497999906539917 L 0.3449335098266602 0.06211566925048828 L 1.5 -2.195499897003174 Z" stroke="none" fill="#e51026"/>
    </g>
  </g>
</svg>
