<svg xmlns="http://www.w3.org/2000/svg" width="51.057" height="51.033" viewBox="0 0 51.057 51.033">
  <g id="future" transform="translate(-473.225 -342.794)">
    <path id="Контур_39" data-name="Контур 39" d="M480.43,347.354h33.179v-4.06l10.123,7.539-9.79,7.983v-4.163h-20.36a19.319,19.319,0,0,0-19.319,19.319v0a19.319,19.319,0,0,0,19.319,19.319h.291" transform="translate(0.05 0)" fill="none" stroke="#e51026" stroke-linecap="round" stroke-linejoin="round" stroke-miterlimit="1.5" stroke-width="1" fill-rule="evenodd"/>
    <g id="Сгруппировать_281" data-name="Сгруппировать 281" transform="translate(482.473 362.579)">
      <circle id="Эллипс_9" data-name="Эллипс 9" cx="11.668" cy="11.668" r="11.668" transform="translate(0)" fill="none" stroke="#e51026" stroke-linecap="round" stroke-linejoin="round" stroke-miterlimit="1.5" stroke-width="1"/>
    </g>
    <path id="Контур_40" data-name="Контур 40" d="M492.4,360.936v2.757" transform="translate(1.741 1.644)" fill="none" stroke="#e51026" stroke-linecap="round" stroke-linejoin="round" stroke-miterlimit="1.5" stroke-width="1" fill-rule="evenodd"/>
    <g id="Сгруппировать_282" data-name="Сгруппировать 282" transform="translate(494.143 383.159)">
      <path id="Контур_41" data-name="Контур 41" d="M492.4,360.936v2.757" transform="translate(-492.402 -360.936)" fill="none" stroke="#e51026" stroke-linecap="round" stroke-linejoin="round" stroke-miterlimit="1.5" stroke-width="1" fill-rule="evenodd"/>
    </g>
    <g id="Сгруппировать_283" data-name="Сгруппировать 283" transform="translate(505.811 374.248) rotate(90)">
      <path id="Контур_42" data-name="Контур 42" d="M0,0V2.757" fill="none" stroke="#e51026" stroke-linecap="round" stroke-linejoin="round" stroke-miterlimit="1.5" stroke-width="1" fill-rule="evenodd"/>
    </g>
    <g id="Сгруппировать_284" data-name="Сгруппировать 284" transform="translate(485.232 374.248) rotate(90)">
      <path id="Контур_43" data-name="Контур 43" d="M0,0V2.757" fill="none" stroke="#e51026" stroke-linecap="round" stroke-linejoin="round" stroke-miterlimit="1.5" stroke-width="1" fill-rule="evenodd"/>
    </g>
    <g id="Сгруппировать_285" data-name="Сгруппировать 285" transform="translate(504.246 368.417) rotate(60)">
      <path id="Контур_44" data-name="Контур 44" d="M0,0V2.757" fill="none" stroke="#e51026" stroke-linecap="round" stroke-linejoin="round" stroke-miterlimit="1.5" stroke-width="1" fill-rule="evenodd"/>
    </g>
    <g id="Сгруппировать_286" data-name="Сгруппировать 286" transform="translate(486.424 378.706) rotate(60)">
      <path id="Контур_45" data-name="Контур 45" d="M0,0V2.757" fill="none" stroke="#e51026" stroke-linecap="round" stroke-linejoin="round" stroke-miterlimit="1.5" stroke-width="1" fill-rule="evenodd"/>
    </g>
    <g id="Сгруппировать_287" data-name="Сгруппировать 287" transform="translate(499.979 364.145) rotate(30)">
      <path id="Контур_46" data-name="Контур 46" d="M0,0V2.757" fill="none" stroke="#e51026" stroke-linecap="round" stroke-linejoin="round" stroke-miterlimit="1.5" stroke-width="1" fill-rule="evenodd"/>
    </g>
    <g id="Сгруппировать_288" data-name="Сгруппировать 288" transform="translate(489.69 381.968) rotate(30)">
      <path id="Контур_47" data-name="Контур 47" d="M0,0V2.757" fill="none" stroke="#e51026" stroke-linecap="round" stroke-linejoin="round" stroke-miterlimit="1.5" stroke-width="1" fill-rule="evenodd"/>
    </g>
    <g id="Сгруппировать_289" data-name="Сгруппировать 289" transform="translate(488.312 364.145) rotate(-30)">
      <path id="Контур_48" data-name="Контур 48" d="M0,0V2.757" fill="none" stroke="#e51026" stroke-linecap="round" stroke-linejoin="round" stroke-miterlimit="1.5" stroke-width="1" fill-rule="evenodd"/>
    </g>
    <g id="Сгруппировать_290" data-name="Сгруппировать 290" transform="translate(498.601 381.968) rotate(-30)">
      <path id="Контур_49" data-name="Контур 49" d="M0,0V2.757" fill="none" stroke="#e51026" stroke-linecap="round" stroke-linejoin="round" stroke-miterlimit="1.5" stroke-width="1" fill-rule="evenodd"/>
    </g>
    <g id="Сгруппировать_291" data-name="Сгруппировать 291" transform="translate(484.04 368.412) rotate(-60)">
      <path id="Контур_50" data-name="Контур 50" d="M0,0V2.757" fill="none" stroke="#e51026" stroke-linecap="round" stroke-linejoin="round" stroke-miterlimit="1.5" stroke-width="1" fill-rule="evenodd"/>
    </g>
    <g id="Сгруппировать_292" data-name="Сгруппировать 292" transform="translate(501.862 378.701) rotate(-60)">
      <path id="Контур_51" data-name="Контур 51" d="M0,0V2.757" fill="none" stroke="#e51026" stroke-linecap="round" stroke-linejoin="round" stroke-miterlimit="1.5" stroke-width="1" fill-rule="evenodd"/>
    </g>
    <path id="Контур_52" data-name="Контур 52" d="M492.4,365.47v6.711l2.9,2.9" transform="translate(1.741 2.067)" fill="none" stroke="#e51026" stroke-linecap="round" stroke-linejoin="round" stroke-miterlimit="1.5" stroke-width="1" fill-rule="evenodd"/>
    <path id="Контур_53" data-name="Контур 53" d="M494.7,389.1a16.337,16.337,0,0,0,4.133-.836" transform="translate(1.955 4.192)" fill="none" stroke="#e51026" stroke-linecap="round" stroke-linejoin="round" stroke-miterlimit="1.5" stroke-width="1" fill-rule="evenodd"/>
    <path id="Контур_54" data-name="Контур 54" d="M500.075,387.85a16.52,16.52,0,0,0,4.157-2.66" transform="translate(2.456 3.905)" fill="none" stroke="#e51026" stroke-linecap="round" stroke-linejoin="round" stroke-miterlimit="1.5" stroke-width="1" fill-rule="evenodd"/>
    <path id="Контур_55" data-name="Контур 55" d="M505.1,384.564a13.664,13.664,0,0,0,3.017-4.038" transform="translate(2.925 3.47)" fill="none" stroke="#e51026" stroke-linecap="round" stroke-linejoin="round" stroke-miterlimit="1.5" stroke-width="1" fill-rule="evenodd"/>
    <path id="Контур_56" data-name="Контур 56" d="M508.637,379.433a15.513,15.513,0,0,0,1.5-4.964" transform="translate(3.254 2.906)" fill="none" stroke="#e51026" stroke-linecap="round" stroke-linejoin="round" stroke-miterlimit="1.5" stroke-width="1" fill-rule="evenodd"/>
    <path id="Контур_57" data-name="Контур 57" d="M478.513,347.008h-4.788" transform="translate(0 0.346)" fill="none" stroke="#e51026" stroke-linecap="round" stroke-linejoin="round" stroke-miterlimit="1.5" stroke-width="1" fill-rule="evenodd"/>
  </g>
</svg>
