<svg id="Слой-1" xmlns="http://www.w3.org/2000/svg" width="211.935" height="80" viewBox="0 0 211.935 80">
  <g id="Сгруппировать_1" data-name="Сгруппировать 1" transform="translate(0 50.759)">
    <path id="Контур_1" data-name="Контур 1" d="M353.359,1600.557h1.951V1590h-1.951Zm-6.094-1.577v-3.5h.535a3.316,3.316,0,0,1,1.684.321,1.49,1.49,0,0,1,.722,1.417c0,1.176-.7,1.764-2.272,1.764Zm-1.951,1.577h2.566c3.154,0,4.277-1.443,4.277-3.368a2.831,2.831,0,0,0-1.577-2.753,5.717,5.717,0,0,0-2.807-.535h-.508V1590h-1.951Zm-9.141,0H338.1v-8.927h2.833l.535-1.63H333.1v1.63h3.074Zm-11.574-1.47c-1.951,0-3.261-1.39-3.261-3.769,0-2.406,1.31-3.8,3.261-3.8,2,0,3.288,1.443,3.288,3.8,0,2.379-1.336,3.769-3.288,3.769m0,1.631a5.413,5.413,0,1,0-5.319-5.4,5.13,5.13,0,0,0,5.319,5.4m-9.168-2.352a5.174,5.174,0,0,1-2.619.721,3.407,3.407,0,0,1-3.5-3.742,3.513,3.513,0,0,1,3.582-3.823,5.794,5.794,0,0,1,2.726.669V1590.4a7.074,7.074,0,0,0-2.78-.508,5.341,5.341,0,0,0-5.587,5.506,4.947,4.947,0,0,0,5.346,5.319,6.644,6.644,0,0,0,3.341-.828Zm-17.507-2.032.775-2.085a13.48,13.48,0,0,0,.535-1.657h.027c.107.374.24.856.535,1.657l.748,2.085Zm-3.555,4.223h2l.989-2.646h3.769l1.016,2.646h2.084l-4.25-10.611h-1.524Zm-7.19-5.212v-3.8h.535a2.433,2.433,0,0,1,1.31.294,1.714,1.714,0,0,1,.855,1.6A1.686,1.686,0,0,1,289,1595.1a2.719,2.719,0,0,1-1.23.241Zm-1.925,5.212h1.925v-3.635h.454a6.428,6.428,0,0,0,2.245-.374,3.146,3.146,0,0,0,2-3.1,3.082,3.082,0,0,0-1.711-2.994,5.1,5.1,0,0,0-2.379-.454h-2.539Zm-12.375,0h1.951v-4.544h1.47c.321,0,.615.24,1.042,1.149l1.63,3.394h2.218l-2.112-4.089c-.4-.748-.748-1.149-1.2-1.31v-.026c.962-.588,1.256-2.272,1.737-3.074a.8.8,0,0,1,.748-.428,1.53,1.53,0,0,1,.642.134v-1.711a3.235,3.235,0,0,0-1.016-.16,2,2,0,0,0-1.844,1.1c-.748,1.417-.882,3.448-2.379,3.448h-.936V1590h-1.951Zm-15.85-7.3a1.668,1.668,0,0,1,1.9-1.711H260.1v3.315h-1.123c-1.123,0-1.951-.454-1.951-1.6m-3.047,7.3h2.245l1.337-2.967c.428-.909.695-1.149,1.015-1.149H260.1v4.116h1.924V1590h-3.368c-2.085,0-3.662,1.069-3.662,3.127a2.582,2.582,0,0,0,1.791,2.566v.027c-.428.241-.641.562-1.042,1.337Zm-9.783-4.223.748-2.085c.294-.8.454-1.283.562-1.657h.027a13.4,13.4,0,0,0,.535,1.657l.722,2.085Zm-3.582,4.223h2l.989-2.646h3.769l1.042,2.646h2.085l-4.25-10.611h-1.55Zm-11.788,0h1.951v-4.544h1.47c.321,0,.615.24,1.042,1.149l1.63,3.394h2.219L235,1596.468c-.374-.748-.722-1.149-1.2-1.31v-.026c.989-.588,1.283-2.272,1.764-3.074a.794.794,0,0,1,.748-.428,1.612,1.612,0,0,1,.641.134v-1.711a3.235,3.235,0,0,0-1.016-.16,2,2,0,0,0-1.844,1.1c-.775,1.417-.882,3.448-2.379,3.448h-.936V1590h-1.951Zm-4.624-2.191a5,5,0,0,1-2.593.721,3.407,3.407,0,0,1-3.5-3.742,3.508,3.508,0,0,1,3.555-3.823,5.639,5.639,0,0,1,2.726.669V1590.4a6.835,6.835,0,0,0-2.753-.508,5.326,5.326,0,0,0-5.586,5.506,4.947,4.947,0,0,0,5.346,5.319,6.777,6.777,0,0,0,3.341-.828Zm-16.839-3.021v-3.8h.535a2.433,2.433,0,0,1,1.31.294,1.765,1.765,0,0,1,.855,1.6,1.686,1.686,0,0,1-.882,1.657,2.765,2.765,0,0,1-1.257.241Zm-1.924,5.212h1.924v-3.635h.454a6.432,6.432,0,0,0,2.245-.374,3.184,3.184,0,0,0,2-3.1,3.083,3.083,0,0,0-1.711-2.994,5.177,5.177,0,0,0-2.379-.454H205.44Zm-10.344,0h5.854v-1.63H197.02v-2.913h3.395v-1.63H197.02v-2.753h3.395l.535-1.63H195.1Zm-9.141,0h1.924v-8.927h2.833l.535-1.63h-8.366v1.63h3.074Zm-7-2.191a5,5,0,0,1-2.593.721,3.406,3.406,0,0,1-3.5-3.742,3.507,3.507,0,0,1,3.555-3.823,5.64,5.64,0,0,1,2.727.669V1590.4a6.837,6.837,0,0,0-2.753-.508,5.326,5.326,0,0,0-5.586,5.506,4.947,4.947,0,0,0,5.346,5.319,6.776,6.776,0,0,0,3.341-.828Zm-17.481-2.032.748-2.085c.294-.8.454-1.283.561-1.657h.027c.107.374.24.856.535,1.657l.722,2.085Zm-3.555,4.223h2l.989-2.646h3.769l1.016,2.646h2.085l-4.25-10.611h-1.55Zm-14.541,0H145.3v-7.35h.027a6.465,6.465,0,0,0,.721,1.1l2.3,3.314h.882l2.085-3.234c.187-.294.588-.882.722-1.176h.027c-.027.4-.027.962-.027,1.39v5.96h1.951V1590h-1.764l-2.539,3.929c-.374.562-.641,1.016-.882,1.417h-.027c-.24-.428-.507-.8-.882-1.363l-2.78-3.983h-1.737Z" transform="translate(-143.375 -1589.893)" fill="#f2f2f2"/>
  </g>
  <g id="Сгруппировать_2" data-name="Сгруппировать 2" transform="translate(74.146 70.378)">
    <path id="Контур_2" data-name="Контур 2" d="M-543.294-57.269a1.309,1.309,0,0,1-1.47-1.31c0-.935.641-1.416,1.631-1.416h.882v2.726Zm-1.1.561a2.33,2.33,0,0,0-.829,1.016L-546.5-53.34h1.123l1.123-2.192c.347-.642.668-.882.909-.882h1.1v3.074h1.042v-7.511h-2.031a2.28,2.28,0,0,0-2.566,2.245,1.925,1.925,0,0,0,1.417,1.871Zm-9.436,1.818c0-.4.027-1.123.027-1.631v-4.33h-1.042v7.511h.909l3.368-4.357c.481-.615.882-1.149,1.229-1.657v6.014h1.016v-7.511h-.962l-3.288,4.277A19.994,19.994,0,0,0-553.8-54.89Zm-11.146,1.55h1.042v-4.3c0-.481,0-1.176-.027-1.5h.027c.214.347.588.936.855,1.363l1.55,2.406h.535l1.55-2.406c.267-.428.615-1.016.855-1.363h.027c-.027.321-.053,1.016-.053,1.5v4.3h1.042v-7.511h-.935l-1.764,2.726c-.4.615-.775,1.2-.989,1.55h-.027c-.187-.348-.561-.936-.962-1.55l-1.791-2.726h-.936Zm-6.522,0h4.116V-54.2h-3.074v-2.539h2.806v-.829h-2.806V-60h2.86l.347-.855h-4.25Zm-3.956-.882H-578.9v-.027A15.213,15.213,0,0,0-576.919-60h1.47Zm-5.132,2.94h1.042V-53.34h5v2.058h1.015v-2.94h-.882v-6.629h-3.315a14.8,14.8,0,0,1-2.352,6.629h-.508Zm-5.212-4.731.748-2c.161-.4.321-.909.481-1.363h.027c.161.454.321.936.481,1.337l.748,2.031Zm-2.085,2.673h1.1l.668-1.844h3.127l.695,1.844h1.1l-2.967-7.565h-.722Zm-3.287-3.822c.8-.561.962-1.657,1.31-2.459a.585.585,0,0,1,.535-.348,1.478,1.478,0,0,1,.455.08v-.936a2.394,2.394,0,0,0-.588-.08,1.271,1.271,0,0,0-1.2.8c-.428.909-.562,2.566-1.791,2.566h-.695v-3.314h-1.042v7.511h1.042v-3.341h1.1c.214,0,.535.267.855.882l1.363,2.459h1.123l-1.5-2.673a2.6,2.6,0,0,0-.962-1.123Zm-9.275,1.149.748-2c.161-.4.321-.909.481-1.363h.027c.161.454.321.936.481,1.337l.748,2.031Zm-2.085,2.673h1.1l.668-1.844h3.127l.7,1.844h1.1l-2.994-7.565h-.721Z" transform="translate(602.525 60.904)" fill="#f2f2f2"/>
  </g>
  <g id="Сгруппировать_3" data-name="Сгруппировать 3" transform="translate(127.284 38.249) rotate(180)">
    <path id="Контур_3" data-name="Контур 3" d="M0,0H2.833V8.82L0,10.21Z" transform="translate(0 0)" fill="#e51026"/>
  </g>
  <g id="Сгруппировать_4" data-name="Сгруппировать 4" transform="translate(60.301 0)">
    <path id="Контур_4" data-name="Контур 4" d="M-307.2-15.668l-33.492-16.144v3.154L-307.2-12.541l30.658-14.728v8.179l2.833-1.39v-11.28Z" transform="translate(340.688 31.813)" fill="#e51026"/>
  </g>
  <g id="Сгруппировать_5" data-name="Сгруппировать 5" transform="translate(60.274 0.134)">
    <path id="Контур_5" data-name="Контур 5" d="M-307.44-45.418l-33.518-16.091v23.575h2.833V-57.018l30.685,14.754L-243.424-73v-3.127Z" transform="translate(340.959 76.129)" fill="#e51026"/>
  </g>
  <g id="Сгруппировать_6" data-name="Сгруппировать 6" transform="translate(132.069 13.685)">
    <path id="Контур_6" data-name="Контур 6" d="M-59.82-113.268l19.218-9.195v-3.154l-25.74,12.349,25.74,12.349v-3.127Z" transform="translate(66.342 125.617)" fill="#e51026"/>
  </g>
  <g id="Сгруппировать_7" data-name="Сгруппировать 7" transform="translate(164.504 31.504)">
    <path id="Контур_7" data-name="Контур 7" d="M-6.7-27.907h.749c.781,0,1.276-.428,1.276-1.076,0-.731-.529-1.051-1.3-1.059a3.039,3.039,0,0,0-.723.067Zm-.73-2.579a7.627,7.627,0,0,1,1.4-.118,2.316,2.316,0,0,1,1.639.462,1.411,1.411,0,0,1,.445,1.076,1.487,1.487,0,0,1-1.067,1.445v.026a1.411,1.411,0,0,1,.832,1.143A9.12,9.12,0,0,0-3.741-24.9H-4.5a7.386,7.386,0,0,1-.378-1.353c-.168-.782-.471-1.076-1.134-1.1H-6.7V-24.9h-.73Z" transform="translate(7.429 30.604)" fill="#e51026"/>
  </g>
  <g id="Сгруппировать_8" data-name="Сгруппировать 8" transform="translate(162.183 38.422) rotate(-90)">
    <circle id="Эллипс_1" data-name="Эллипс 1" cx="4.027" cy="4.027" r="4.027" transform="translate(0 0)" fill="none" stroke="#e51026" stroke-miterlimit="10" stroke-width="0.8"/>
  </g>
</svg>
