<svg xmlns="http://www.w3.org/2000/svg" width="26" height="20" viewBox="0 0 26 20">
  <g id="online" transform="translate(-1275.319 -172.79)">
    <circle id="Эллипс_5" data-name="Эллипс 5" cx="3" cy="3" r="3" transform="translate(1285 179)" fill="#e51026"/>
    <path id="Контур_10" data-name="Контур 10" d="M-.262-.115A7.959,7.959,0,0,1,1.325,4.476,7.968,7.968,0,0,1-.262,9.069" transform="translate(1293.5 177.5)" fill="none" stroke="#e51026" stroke-linecap="round" stroke-width="1.5"/>
    <path id="Контур_11" data-name="Контур 11" d="M-.262-.115A13.021,13.021,0,0,1,3.072,8.022,12.713,12.713,0,0,1-.262,16.087" transform="translate(1296.859 173.966)" fill="none" stroke="#e51026" stroke-linecap="round" stroke-width="1.5"/>
    <path id="Контур_12" data-name="Контур 12" d="M1.325-.115A7.959,7.959,0,0,0-.262,4.476,7.968,7.968,0,0,0,1.325,9.069" transform="translate(1281.437 177.5)" fill="none" stroke="#e51026" stroke-linecap="round" stroke-width="1.5"/>
    <path id="Контур_13" data-name="Контур 13" d="M3.072-.115A13.021,13.021,0,0,0-.262,8.022a12.713,12.713,0,0,0,3.334,8.064" transform="translate(1276.331 173.966)" fill="none" stroke="#e51026" stroke-linecap="round" stroke-width="1.5"/>
  </g>
</svg>
