<svg xmlns="http://www.w3.org/2000/svg" width="62.518" height="51.03" viewBox="0 0 62.518 51.03">
  <g id="payment" transform="translate(-283.88 -346.479)">
    <path id="Контур_26" data-name="Контур 26" d="M336.477,364.977a2.243,2.243,0,0,0-2.245-2.245H286.625a2.245,2.245,0,0,0-2.245,2.245V390.43a2.245,2.245,0,0,0,2.245,2.245h47.607a2.243,2.243,0,0,0,2.245-2.245Z" transform="translate(0 4.333)" fill="none" stroke="#e51026" stroke-linecap="round" stroke-linejoin="round" stroke-miterlimit="1.5" stroke-width="1" fill-rule="evenodd"/>
    <g id="Сгруппировать_275" data-name="Сгруппировать 275" transform="translate(290.122 379.944)">
      <rect id="Прямоугольник_30" data-name="Прямоугольник 30" width="10.459" height="5.95" transform="translate(0 0)" fill="none" stroke="#e51026" stroke-linecap="round" stroke-linejoin="round" stroke-miterlimit="1.5" stroke-width="1"/>
    </g>
    <path id="Контур_27" data-name="Контур 27" d="M288.882,381.7H295.5" transform="translate(1.241 9.56)" fill="none" stroke="#e51026" stroke-linecap="round" stroke-linejoin="round" stroke-miterlimit="1.5" stroke-width="1" fill-rule="evenodd"/>
    <g id="Сгруппировать_276" data-name="Сгруппировать 276" transform="translate(301.381 391.257)">
      <path id="Контур_28" data-name="Контур 28" d="M288.882,381.7H295.5" transform="translate(-288.882 -381.697)" fill="none" stroke="#e51026" stroke-linecap="round" stroke-linejoin="round" stroke-miterlimit="1.5" stroke-width="1" fill-rule="evenodd"/>
    </g>
    <g id="Сгруппировать_277" data-name="Сгруппировать 277" transform="translate(312.64 391.257)">
      <path id="Контур_29" data-name="Контур 29" d="M288.882,381.7H295.5" transform="translate(-288.882 -381.697)" fill="none" stroke="#e51026" stroke-linecap="round" stroke-linejoin="round" stroke-miterlimit="1.5" stroke-width="1" fill-rule="evenodd"/>
    </g>
    <g id="Сгруппировать_278" data-name="Сгруппировать 278" transform="translate(323.899 391.257)">
      <path id="Контур_30" data-name="Контур 30" d="M288.882,381.7H295.5" transform="translate(-288.882 -381.697)" fill="none" stroke="#e51026" stroke-linecap="round" stroke-linejoin="round" stroke-miterlimit="1.5" stroke-width="1" fill-rule="evenodd"/>
    </g>
    <path id="Контур_31" data-name="Контур 31" d="M290.451,367.065l3.415-18.224a2.246,2.246,0,0,1,2.6-1.8l45.881,8.221a2.246,2.246,0,0,1,1.819,2.579c-.906,5.435-3.249,19.5-4.153,24.933a2.245,2.245,0,0,1-2.551,1.851l-2.66-.4" transform="translate(1.673 0)" fill="none" stroke="#e51026" stroke-linecap="round" stroke-linejoin="round" stroke-miterlimit="1.5" stroke-width="1" fill-rule="evenodd"/>
    <path id="Контур_32" data-name="Контур 32" d="M292.349,352.6l50.382,9.185" transform="translate(2.196 1.542)" fill="none" stroke="#e51026" stroke-linecap="round" stroke-linejoin="round" stroke-miterlimit="1.5" stroke-width="1" fill-rule="evenodd"/>
  </g>
</svg>
