<svg xmlns="http://www.w3.org/2000/svg" width="22" height="26.148" viewBox="0 0 22 26.148">
  <g id="pin" transform="translate(-4.997 -2.927)">
    <path id="Контур_8" data-name="Контур 8" d="M23.775,6.15A11,11,0,1,0,8.219,21.71l4.1,4.1a1,1,0,1,0,1.42-1.42l-4.1-4.1a9,9,0,1,1,12.716,0l-7.068,7.07a1,1,0,1,0,1.42,1.42l7.068-7.07a11,11,0,0,0,0-15.56Z" fill="#e51026"/>
    <path id="Контур_9" data-name="Контур 9" d="M21,14a5,5,0,1,0-5,5,5,5,0,0,0,5-5Zm-8,0a3,3,0,1,1,3,3,3,3,0,0,1-3-3Z" transform="translate(-0.003)" fill="#e51026"/>
  </g>
</svg>
