<svg xmlns="http://www.w3.org/2000/svg" width="42" height="42" viewBox="0 0 42 42">
  <g id="play" transform="translate(-780 -2300)">
    <g id="Эллипс_8" data-name="Эллипс 8" transform="translate(780 2300)" fill="none" stroke="#e51026" stroke-width="1">
      
      <circle cx="20" cy="20" r="19.5" fill="none"/>
    </g>
    <g id="Многоугольник_14" data-name="Многоугольник 14" transform="translate(806.722 2311.5) rotate(90)" fill="#e51026">
      <path d="M 14.68006038665771 8.500001907348633 L 2.319940090179443 8.500001907348633 C 2.014709949493408 8.500001907348633 1.891319990158081 8.268781661987305 1.860780000686646 8.197921752929688 C 1.830229997634888 8.12705135345459 1.74685001373291 7.878591537475586 1.956429958343506 7.656691551208496 L 8.136500358581543 1.113091468811035 C 8.231929779052734 1.012051463127136 8.361020088195801 0.956401526927948 8.5 0.956401526927948 C 8.638979911804199 0.956401526927948 8.768070220947266 1.012051463127136 8.863499641418457 1.113091468811035 L 15.04356956481934 7.656691551208496 C 15.25314998626709 7.878591537475586 15.16977024078369 8.12705135345459 15.13922023773193 8.197921752929688 C 15.10867977142334 8.268781661987305 14.98528957366943 8.500001907348633 14.68006038665771 8.500001907348633 Z" stroke="none"/>
      <path d="M 8.5 1.456401348114014 L 2.319939613342285 7.999991416931152 C 2.319937705993652 7.999994277954102 2.319944381713867 7.999997138977051 2.319930076599121 8.000001907348633 L 14.6800594329834 8.000001907348633 C 14.68006134033203 7.999996662139893 14.68006324768066 7.999991893768311 14.68006992340088 7.999991416931152 L 8.501139640808105 1.456501483917236 C 8.501029968261719 1.45647144317627 8.50059986114502 1.456401348114014 8.5 1.456401348114014 M 8.5 0.4564018249511719 C 8.764849662780762 0.4564018249511719 9.029699325561523 0.5608615875244141 9.227009773254395 0.7697811126708984 L 15.40707969665527 7.313371658325195 C 16.00938034057617 7.951111793518066 15.55726051330566 9.000001907348633 14.6800594329834 9.000001907348633 L 2.319930076599121 9.000001907348633 C 1.442740440368652 9.000001907348633 0.9906196594238281 7.951111793518066 1.592920303344727 7.313371658325195 L 7.772990226745605 0.7697811126708984 C 7.97029972076416 0.5608615875244141 8.235150337219238 0.4564018249511719 8.5 0.4564018249511719 Z" stroke="none" fill="#e51026"/>
    </g>
  </g>
</svg>
