<svg xmlns="http://www.w3.org/2000/svg" width="43.675" height="51.108" viewBox="0 0 43.675 51.108">
  <g id="scissors" transform="translate(-579.398 -346.4)">
    <g id="Сгруппировать_294" data-name="Сгруппировать 294" transform="translate(613.291 383.219)">
      <ellipse id="Эллипс_10" data-name="Эллипс 10" cx="4.375" cy="4.61" rx="4.375" ry="4.61" fill="none" stroke="#e51026" stroke-linecap="round" stroke-linejoin="round" stroke-miterlimit="1.5" stroke-width="1"/>
    </g>
    <path id="Контур_58" data-name="Контур 58" d="M598.613,347.008l9.925,38.887" transform="translate(5.155)" fill="none" stroke="#e51026" stroke-linecap="round" stroke-linejoin="round" stroke-miterlimit="1.5" stroke-width="1" fill-rule="evenodd"/>
    <path id="Контур_59" data-name="Контур 59" d="M610.052,382.579a4.643,4.643,0,0,0,4.175,3.331" transform="translate(8.308 9.802)" fill="none" stroke="#e51026" stroke-linecap="round" stroke-linejoin="round" stroke-miterlimit="1.5" stroke-width="1" fill-rule="evenodd"/>
    <g id="Сгруппировать_295" data-name="Сгруппировать 295" transform="translate(608.145 392.439) rotate(180)">
      <ellipse id="Эллипс_11" data-name="Эллипс 11" cx="4.375" cy="4.61" rx="4.375" ry="4.61" transform="translate(0 0)" fill="none" stroke="#e51026" stroke-linecap="round" stroke-linejoin="round" stroke-miterlimit="1.5" stroke-width="1"/>
    </g>
    <g id="Сгруппировать_296" data-name="Сгруппировать 296" transform="translate(617.664 385.895) rotate(180)">
      <path id="Контур_60" data-name="Контур 60" d="M0,38.887,9.925,0" fill="none" stroke="#e51026" stroke-linecap="round" stroke-linejoin="round" stroke-miterlimit="1.5" stroke-width="1" fill-rule="evenodd"/>
    </g>
    <g id="Сгруппировать_297" data-name="Сгруппировать 297" transform="translate(603.073 395.712) rotate(180)">
      <path id="Контур_61" data-name="Контур 61" d="M0,3.331A4.643,4.643,0,0,1,4.175,0" fill="none" stroke="#e51026" stroke-linecap="round" stroke-linejoin="round" stroke-miterlimit="1.5" stroke-width="1" fill-rule="evenodd"/>
    </g>
    <path id="Контур_62" data-name="Контур 62" d="M596.034,376.477h-4.5a4.611,4.611,0,0,0-4.592,5.022c.343,3.823.8,8.96,1.093,12.182a2.8,2.8,0,0,1-2.786,3.047H582.7a2.8,2.8,0,0,1-2.746-3.331c.962-5.061,2.524-14.971,1.95-23.12-.648-9.178-1.466-16.056.6-20.686a2.981,2.981,0,0,1,2.845-1.56c3.452.194,10.525.721,10.525.721" transform="translate(0 0.28)" fill="none" stroke="#e51026" stroke-linecap="round" stroke-linejoin="round" stroke-miterlimit="1.5" stroke-width="1" fill-rule="evenodd"/>
    <g id="Сгруппировать_298" data-name="Сгруппировать 298" transform="translate(587.97 352.303)">
      <path id="Контур_63" data-name="Контур 63" d="M586.228,351.077l8.064.225" transform="translate(-586.228 -351.077)" fill="none" stroke="#e51026" stroke-linecap="round" stroke-linejoin="round" stroke-miterlimit="1.5" stroke-width="1" fill-rule="evenodd"/>
    </g>
    <g id="Сгруппировать_299" data-name="Сгруппировать 299" transform="translate(587.97 356.444)">
      <path id="Контур_64" data-name="Контур 64" d="M586.228,351.253h8.064" transform="translate(-586.228 -351.253)" fill="none" stroke="#e51026" stroke-linecap="round" stroke-linejoin="round" stroke-miterlimit="1.5" stroke-width="1" fill-rule="evenodd"/>
    </g>
    <g id="Сгруппировать_300" data-name="Сгруппировать 300" transform="translate(587.97 360.465)">
      <path id="Контур_65" data-name="Контур 65" d="M586.228,351.253h8.064" transform="translate(-586.228 -351.253)" fill="none" stroke="#e51026" stroke-linecap="round" stroke-linejoin="round" stroke-miterlimit="1.5" stroke-width="1" fill-rule="evenodd"/>
    </g>
    <g id="Сгруппировать_301" data-name="Сгруппировать 301" transform="translate(587.97 372.712)">
      <path id="Контур_66" data-name="Контур 66" d="M586.228-351.029l8.064-.225" transform="translate(-586.228 351.253)" fill="none" stroke="#e51026" stroke-linecap="round" stroke-linejoin="round" stroke-miterlimit="1.5" stroke-width="1" fill-rule="evenodd"/>
    </g>
    <g id="Сгруппировать_302" data-name="Сгруппировать 302" transform="translate(587.97 368.795)">
      <path id="Контур_67" data-name="Контур 67" d="M586.228-351.253h8.064" transform="translate(-586.228 351.253)" fill="none" stroke="#e51026" stroke-linecap="round" stroke-linejoin="round" stroke-miterlimit="1.5" stroke-width="1" fill-rule="evenodd"/>
    </g>
    <g id="Сгруппировать_303" data-name="Сгруппировать 303" transform="translate(587.97 364.774)">
      <path id="Контур_68" data-name="Контур 68" d="M586.228-351.253h8.064" transform="translate(-586.228 351.253)" fill="none" stroke="#e51026" stroke-linecap="round" stroke-linejoin="round" stroke-miterlimit="1.5" stroke-width="1" fill-rule="evenodd"/>
    </g>
  </g>
</svg>
