<svg xmlns="http://www.w3.org/2000/svg" width="35.131" height="51.075" viewBox="0 0 35.131 51.075">
  <g id="teacher" transform="translate(-380.388 -342.174)">
    <path id="Контур_33" data-name="Контур 33" d="M381.26,391.832s-1.267-8.489,2.424-11.027,5.234-1.391,8.032-3.355c2.723-1.911,2.032-4.217,2.032-4.217" transform="translate(0.004 0.842)" fill="none" stroke="#e51026" stroke-linecap="round" stroke-linejoin="round" stroke-miterlimit="1.5" stroke-width="1" fill-rule="evenodd"/>
    <path id="Контур_34" data-name="Контур 34" d="M400.881,391.714l2.355-14.22a3.133,3.133,0,0,0,2.011,1c1.148.025,4.9.135,6.88,2.871,2.341,3.238,1.636,10.348,1.636,10.348" transform="translate(0.551 0.96)" fill="none" stroke="#e51026" stroke-linecap="round" stroke-linejoin="round" stroke-miterlimit="1.5" stroke-width="1" fill-rule="evenodd"/>
    <path id="Контур_35" data-name="Контур 35" d="M396.39,380.585c3.873.2,5.959-.8,6.97-3.091" transform="translate(0.427 0.96)" fill="none" stroke="#e51026" stroke-linecap="round" stroke-linejoin="round" stroke-miterlimit="1.5" stroke-width="1" fill-rule="evenodd"/>
    <path id="Контур_36" data-name="Контур 36" d="M391.861,358a26.359,26.359,0,0,0,11.75-4.32,8.393,8.393,0,0,0,4.55,4.467v5.175a10.447,10.447,0,0,1-10.446,10.446h0a10.446,10.446,0,0,1-10.446-10.446v-5.943" transform="translate(0.176 0.303)" fill="none" stroke="#e51026" stroke-linecap="round" stroke-linejoin="round" stroke-miterlimit="1.5" stroke-width="1" fill-rule="evenodd"/>
    <path id="Контур_37" data-name="Контур 37" d="M391.738,377.107l1.725,14.618" transform="translate(0.299 0.949)" fill="none" stroke="#e51026" stroke-linecap="round" stroke-linejoin="round" stroke-miterlimit="1.5" stroke-width="1" fill-rule="evenodd"/>
    <path id="Контур_38" data-name="Контур 38" d="M385.73,380.485s-4.842-3.769-4.842-9.632,3.059-5.733,3.489-10.577c.157-1.762.2-4.574.19-7.437a10.412,10.412,0,0,1,10.409-10.153c1.895-.011,3.869-.011,5.759-.011A10.422,10.422,0,0,1,411.158,353.1v7.18c0,3.35,3.9,4.57,3.861,8.977a17.57,17.57,0,0,1-2.444,8.2" transform="translate(0)" fill="none" stroke="#e51026" stroke-linecap="round" stroke-linejoin="round" stroke-miterlimit="1.5" stroke-width="1" fill-rule="evenodd"/>
  </g>
</svg>
